<?xml version="1.0" encoding="utf-8"?>
<!-- Generator: Adobe Illustrator 18.1.1, SVG Export Plug-In . SVG Version: 6.00 Build 0)  -->
<svg version="1.1" baseProfile="basic" id="Layer_1" xmlns:odm="http://product.corel.com/CGS/11/cddns/"
	 xmlns="http://www.w3.org/2000/svg" xmlns:xlink="http://www.w3.org/1999/xlink" x="0px" y="0px" viewBox="-7 -24.9 595.3 841.9"
	 xml:space="preserve">
<g id="Ebene_1">
	<path fill="#DA251D" d="M240.2-24.9c-16.5,0-33.3,16.7-33.5,27.5l0.2,47.8c0,5.1,3.8,8.7,8.3,8.7h150.5c4.9,0,8.9-4.2,8.9-9.6
		c0.2-13.4,0-27.5,0-40.9c0-16.7-16.7-33.5-33.7-33.5H240.2z M215.2,92.6L206.7,227c-36,34.8-63.9,74.1-84,117.5l0.2,100.7h108.7
		c0.4-8.5,17.2-33.3,42.4-33.3l33.3-0.2c25.2,0,42.2,25.5,42.2,33.5l109,0.2V344.4c-20.1-46.2-50.5-83.3-83.7-117.7l-8.9-134.2
		H215.2z M122.7,478.9h92.2c-8,50-7.8,100.9,0,150.5h-92.2V478.9z M458.3,478.9h-92.4c8.3,50,7.8,100.9,0,150.5h92.4V478.9z
		 M122.5,663.1l0.7,117.5c-0.2,17.2,16.7,33.7,33.5,34.2l268.4-0.4c16.5,0.4,33.5-16.5,33.7-33.5l-0.4-117.5H349.8
		c-0.2,16.7-25.5,33.7-42.4,33.5h-41.8c-17-0.2-33.7-16.5-33.7-33.5L122.5,663.1z"/>
</g>
</svg>
