<?xml version="1.0" encoding="utf-8"?>
<!-- Generator: Adobe Illustrator 18.1.1, SVG Export Plug-In . SVG Version: 6.00 Build 0)  -->
<svg version="1.1" baseProfile="basic" id="Layer_1" xmlns:odm="http://product.corel.com/CGS/11/cddns/"
	 xmlns="http://www.w3.org/2000/svg" xmlns:xlink="http://www.w3.org/1999/xlink" x="0px" y="0px" viewBox="-234 326.3 141.7 141.7"
	 xml:space="preserve">
<g id="Ebene_1">
	<path fill="#DA251D" d="M-215,350l4.9-4.9c1.3-1.4,3.7-1.2,5.1,0.2l42.3,42.3l42.2-42.3c1.5-1.4,3.8-1.6,5.2-0.2l4.9,4.9
		c1.4,1.3,1.2,3.7-0.3,5.1l-42.2,42.3l42.2,42.3c1.5,1.4,1.7,3.7,0.3,5.1l-4.9,4.9c-1.4,1.4-3.7,1.2-5.2-0.2l-42.2-42.3l-42.3,42.3
		c-1.4,1.4-3.8,1.6-5.1,0.2l-4.9-4.9c-1.4-1.4-1.2-3.7,0.2-5.1l42.3-42.3l-42.3-42.3C-216.2,353.6-216.4,351.3-215,350z"/>
</g>
</svg>
